# xmcd
#
# Track frame offsets: 
#        150
#        22020
#        44579
#        67395
#        85252
#        105788
#        125674
#        142569
#        159844
#        180709
#        201466
#        217628
#        236154
#
# Disc length: 3429 seconds
#
# Revision: 0
# Processed by: cddbd v1.5.2PL0 Copyright (c) Steve Scherf et al.
# Submitted via: ExactAudioCopyFreeDBPlugin 1.0
#
DISCID=b10d630d
DTITLE=Various Artist - 金曲重炫
DYEAR=2004
DGENRE=Easy Listening
TTITLE0=伍思凯 - 寂寞公路
TTITLE1=黄小琥 - 不只是朋友 
TTITLE2=黄大炜 - 让每个人都心碎
TTITLE3=曾庆瑜， 钮大哥 - 为你表演
TTITLE4=莫少聪 - 你在九月离开
TTITLE5=郑怡 - 离家出走
TTITLE6=薛岳 - 机场
TTITLE7=宋达明， 宋逸明 - 爱让我更寂寞
TTITLE8=郑智化 - 把爱感收藏起来
TTITLE9=于台烟 - 明天你会说爱我吗
TTITLE10=伍思凯 - 爱的伤害
TTITLE11=曹俊鸿 - 风的一生
TTITLE12=曲佑良 - 深情如墨
EXTD=
EXTT0=
EXTT1=
EXTT2=
EXTT3=
EXTT4=
EXTT5=
EXTT6=
EXTT7=
EXTT8=
EXTT9=
EXTT10=
EXTT11=
EXTT12=
PLAYORDER=
